<?xml version="1.0" standalone="no"?>
<!DOCTYPE svg PUBLIC "-//W3C//DTD SVG 20010904//EN"
 "http://www.w3.org/TR/2001/REC-SVG-20010904/DTD/svg10.dtd">
<svg version="1.0" xmlns="http://www.w3.org/2000/svg"
 width="739.000000pt" height="739.000000pt" viewBox="0 0 739.000000 739.000000"
 preserveAspectRatio="xMidYMid meet">
<metadata>
Created by potrace 1.11, written by Peter Selinger 2001-2013
</metadata>
<g transform="translate(0.000000,739.000000) scale(0.100000,-0.100000)"
fill="#000000" stroke="none">
<path d="M2527 7194 c-1 -1 -20 -4 -42 -7 -228 -33 -429 -201 -505 -423 -25
-72 -33 -127 -32 -224 3 -286 241 -546 537 -586 77 -10 127 -11 162 -3 20 4
36 3 42 -5 5 -6 43 -128 86 -271 42 -143 92 -311 111 -374 18 -62 32 -117 29
-121 -3 -4 -17 -11 -32 -15 -57 -14 -221 -79 -323 -128 -184 -88 -427 -243
-547 -349 -175 -155 -265 -247 -372 -383 -312 -393 -503 -878 -538 -1365 -33
-467 49 -889 255 -1310 31 -63 60 -117 64 -118 4 -2 8 -8 8 -13 0 -12 54 -99
124 -199 181 -258 426 -496 686 -665 58 -38 116 -76 130 -85 14 -9 79 -44 145
-77 428 -213 900 -305 1380 -270 408 31 796 154 1147 363 237 143 492 361 657
564 29 36 60 74 68 84 25 31 143 205 165 244 241 423 353 841 350 1312 0 120
-7 217 -21 299 -5 31 -13 79 -16 106 -10 85 -72 314 -118 440 -148 403 -390
752 -732 1055 -72 64 -332 250 -349 250 -2 0 -37 19 -78 43 -137 80 -421 197
-578 237 -25 6 -50 13 -57 15 -8 3 -4 32 12 102 13 54 26 112 28 128 3 17 28
133 56 260 28 126 51 232 51 235 0 3 15 7 33 8 101 6 258 71 341 140 146 122
216 268 230 482 3 41 -21 161 -44 222 -74 198 -276 360 -490 394 -47 7 -160 7
-195 0 -241 -50 -419 -203 -496 -425 -98 -281 31 -600 300 -740 44 -23 81 -47
81 -54 0 -7 -9 -48 -19 -92 -16 -68 -62 -281 -75 -351 -2 -11 -12 -52 -21 -90
-19 -80 -25 -109 -32 -144 -2 -13 -5 -25 -6 -26 -1 -1 -22 1 -47 6 -52 10
-274 24 -370 23 -64 0 -242 -11 -290 -18 -14 -2 -50 -6 -80 -10 -30 -3 -57 -8
-60 -10 -3 -2 -24 -6 -46 -9 l-40 -6 -36 122 c-20 68 -73 246 -117 396 -45
150 -81 276 -81 280 0 4 24 26 53 49 123 96 219 275 226 423 1 25 3 54 5 64 4
31 -21 157 -44 218 -72 193 -262 351 -467 389 -51 10 -160 18 -166 13z m158
-259 c255 -72 361 -390 199 -598 -66 -84 -172 -141 -279 -150 -222 -18 -417
157 -417 374 0 154 83 287 220 352 97 45 172 51 277 22z m1875 3 c59 -18 110
-47 157 -91 162 -149 168 -396 13 -547 -95 -92 -217 -130 -344 -107 -310 55
-425 420 -204 645 96 98 251 139 378 100z m-710 -1892 c262 -17 581 -91 775
-181 17 -7 64 -29 105 -48 134 -61 293 -161 475 -299 16 -13 88 -81 160 -153
155 -153 262 -291 368 -470 135 -231 256 -577 283 -810 3 -27 7 -57 10 -65 5
-15 17 -219 17 -280 -1 -82 -13 -256 -22 -308 -6 -31 -13 -77 -16 -102 -25
-183 -153 -529 -273 -735 -25 -45 -131 -203 -145 -217 -7 -7 -31 -39 -55 -70
-72 -97 -281 -298 -410 -396 -68 -50 -125 -92 -127 -92 -2 0 -39 -22 -82 -48
-208 -129 -566 -264 -783 -297 -231 -34 -245 -36 -415 -36 -175 0 -255 5 -345
19 -36 6 -85 14 -110 17 -62 9 -277 67 -382 104 -109 38 -301 129 -382 179
-33 21 -68 41 -76 44 -26 10 -222 157 -295 221 -69 62 -118 109 -205 203 -57
61 -187 232 -226 297 -16 27 -37 61 -46 75 -37 58 -140 277 -172 366 -33 90
-89 289 -100 351 -3 17 -8 53 -12 80 -3 28 -8 53 -10 57 -6 9 -18 226 -17 303
0 73 12 251 18 285 3 13 7 42 10 65 12 78 35 183 60 265 1 3 5 19 10 35 18 67
85 236 131 330 129 270 313 508 564 735 67 61 256 196 352 253 262 155 604
274 865 302 32 4 61 9 65 11 5 3 65 8 135 11 71 3 129 6 130 7 3 2 13 2 173
-8z"/>
<path d="M2507 3295 c-1 -2 -31 -5 -67 -8 -247 -22 -472 -124 -533 -243 -25
-48 -28 -102 -7 -117 15 -11 117 -15 187 -8 7 0 18 13 25 29 48 100 468 149
743 87 91 -21 154 -51 165 -79 13 -36 25 -40 123 -41 76 -1 90 1 102 17 15 22
4 87 -22 128 -58 92 -233 182 -418 215 -54 9 -291 25 -298 20z"/>
<path d="M4510 3293 c-233 -19 -430 -84 -528 -176 -62 -58 -96 -165 -60 -191
13 -10 118 -14 185 -7 7 0 19 14 28 31 60 116 534 153 810 62 49 -15 79 -39
101 -77 9 -17 23 -19 99 -20 112 -1 128 10 114 77 -19 81 -80 146 -195 203
-134 66 -386 111 -554 98z"/>
</g>
</svg>
